<svg width="292" height="36" viewBox="0 0 292 36" fill="none" xmlns="http://www.w3.org/2000/svg">
<g clip-path="url(#clip0_12_14)">
<g clip-path="url(#clip1_12_14)">
<path d="M234.87 0.800232L216.15 35.0202H272.53L291.25 0.800232H234.87Z" fill="#BE905D"/>
<path d="M101.42 5.76022C100.03 4.61022 98.24 3.91022 96.29 3.91022C91.84 3.91022 88.24 7.51022 88.24 11.9602C88.24 14.2302 89.19 16.2802 90.7 17.7502C89.18 19.2102 88.24 21.2602 88.24 23.5402C88.24 25.1902 88.74 26.7302 89.59 28.0102L96.26 15.4602C94.34 15.4402 92.79 13.8902 92.79 11.9602C92.79 10.0302 94.36 8.46022 96.29 8.46022C97.49 8.46022 98.54 9.06022 99.18 9.98022L101.43 5.76022H101.42Z" fill="#BE905D"/>
<path d="M92.2 27.9302C93.61 29.1402 95.44 29.8702 97.44 29.8702C101.89 29.8702 105.49 26.2602 105.49 21.8202C105.49 19.5502 104.54 17.5002 103.03 16.0302C104.55 14.5702 105.49 12.5202 105.49 10.2402C105.49 8.53021 104.95 6.95021 104.05 5.65021L97.31 18.3302C97.31 18.3302 97.4 18.3202 97.44 18.3202C99.37 18.3202 100.94 19.8902 100.94 21.8202C100.94 23.7502 99.37 25.3202 97.44 25.3202C96.18 25.3202 95.09 24.6502 94.47 23.6602L92.2 27.9302Z" fill="#BE905D"/>
<path d="M157.21 16.8902C157.21 20.6202 154.19 23.6402 150.46 23.6402C146.73 23.6402 143.71 20.6202 143.71 16.8902C143.71 13.1602 146.73 10.1402 150.46 10.1402C154.19 10.1402 157.21 13.1602 157.21 16.8902ZM161.45 16.8902C161.45 10.8302 156.54 5.91022 150.47 5.91022C144.4 5.91022 139.49 10.8202 139.49 16.8902C139.49 22.9602 144.4 27.8702 150.47 27.8702C156.54 27.8702 161.45 22.9602 161.45 16.8902Z" fill="white"/>
<path d="M44.63 13.0402C44.63 14.7802 43.51 15.6602 41.74 15.6602H35.91V10.4402H41.74C43.5 10.4402 44.63 11.3302 44.63 13.0402ZM49.39 13.0402C49.39 8.77021 46.29 6.28021 41.37 6.28021H31.25V27.5202H35.92V18.6302L44.07 27.5202H50.28L42.28 19.5202C46.88 19.3602 49.39 17.1902 49.39 13.0402Z" fill="white"/>
<path d="M59.7 27.5202H76.49V23.2702H64.34V18.9202H76.29V14.8102L64.34 14.7902V10.5002H76.47V6.2702H59.7V27.5202Z" fill="white"/>
<path d="M121.84 27.5202H126.43V10.5102H133.18V6.2702H115.06L115.08 10.5102H121.84V27.5202Z" fill="white"/>
<path d="M183.48 13.0402C183.48 14.7802 182.36 15.6602 180.59 15.6602H174.76V10.4402H180.59C182.35 10.4402 183.48 11.3302 183.48 13.0402ZM188.24 13.0402C188.24 8.77021 185.14 6.28021 180.22 6.28021H170.1V27.5202H174.77V18.6302L182.92 27.5202H189.13L181.13 19.5202C185.73 19.3602 188.24 17.1902 188.24 13.0402Z" fill="white"/>
<path d="M210.9 11.7903L212.92 8.00025C210.77 6.82025 207.93 5.97025 204.98 5.98025C200.3 5.98025 196.7 8.60025 196.71 12.1403C196.71 15.3503 198.62 17.5203 203.37 18.5703L206.01 19.1503C208.52 19.7103 209.33 20.1703 209.25 21.4603C209.17 22.8003 207.75 23.6103 205.49 23.6103C203.14 23.6103 200.63 22.9603 198.54 21.7803L196.48 25.6503C198.89 26.9703 202.17 27.8103 205.28 27.8103C210.55 27.8103 214.08 25.1303 214.07 21.4503C214.07 18.0803 212.18 16.1403 207.62 15.1403L204.72 14.5103C202.62 14.0503 201.71 13.4703 201.7 12.2703C201.7 10.9103 203.23 10.1603 205.43 10.1703C207.43 10.1703 209.23 10.8103 210.91 11.7803" fill="white"/>
<path d="M21.99 14.7002C20.97 9.69023 16.54 5.92023 11.23 5.92023C5.16 5.92023 0.25 10.8302 0.25 16.8902C0.25 22.9502 5.16 27.8702 11.23 27.8702C16.59 27.8702 21.04 24.0302 22.01 18.9502H17.66C16.79 21.6702 14.24 23.6402 11.23 23.6402C7.5 23.6402 4.48 20.6202 4.48 16.8902C4.48 13.1602 7.5 10.1402 11.23 10.1402C14.19 10.1402 16.69 12.0402 17.6 14.6902H21.98L21.99 14.7002Z" fill="white"/>
<path d="M230.71 8.41019H238.43V28.1302H240.36V8.41019H248.53V6.63019H231.69L230.71 8.41019Z" fill="white"/>
<path d="M254.66 6.63019H252.72V28.1402H254.66V6.63019Z" fill="white"/>
<path d="M277.66 25.6402L270.33 16.7502L278.62 6.63019H276.24L269.16 15.3602L262.08 6.63019H259.69L267.99 16.7502L258.62 28.1202H261.01L269.16 18.1102L276.71 27.3802L277.66 25.6402Z" fill="white"/>
</g>
</g>
<defs>
<clipPath id="clip0_12_14">
<rect width="291.5" height="35" fill="white" transform="translate(0.25 0.0302124)"/>
</clipPath>
<clipPath id="clip1_12_14">
<rect width="291.5" height="35" fill="white" transform="translate(0.25 0.0302124)"/>
</clipPath>
</defs>
</svg>
